<svg xmlns="http://www.w3.org/2000/svg" xmlns:xlink="http://www.w3.org/1999/xlink" width="446" height="400" viewBox="0 0 446 400"><defs><filter id="Polygon_3-2" width="446" height="400" x="0" y="0" filterUnits="userSpaceOnUse"><feOffset dy="3" input="SourceAlpha"/><feGaussianBlur result="blur-2" stdDeviation="3"/><feFlood flood-color="#bb7a4f" flood-opacity=".659" result="color"/><feComposite in="SourceGraphic" in2="blur-2" operator="out"/><feComposite in="color" operator="in"/><feComposite in2="SourceGraphic" operator="in"/></filter></defs><g data-type="innerShadowGroup"><g transform="matrix(1, 0, 0, 1, 0, 0)"><path id="Polygon_3-3" fill="#161616" d="M164.992,22.655a15,15,0,0,1,26.016,0L343.1,287.531A15,15,0,0,1,330.09,310H25.91A15,15,0,0,1,12.9,287.531Z" data-name="Polygon 3" transform="translate(45 42)"/></g><g filter="url(#Polygon_3-2)" transform="matrix(1, 0, 0, 1, 0, 0)"><path id="Polygon_3-4" fill="#fff" d="M164.992,22.655a15,15,0,0,1,26.016,0L343.1,287.531A15,15,0,0,1,330.09,310H25.91A15,15,0,0,1,12.9,287.531Z" data-name="Polygon 3" transform="translate(45 42)"/></g></g></svg>